<?xml version="1.0" standalone="no"?><!DOCTYPE svg PUBLIC "-//W3C//DTD SVG 1.1//EN" "http://www.w3.org/Graphics/SVG/1.1/DTD/svg11.dtd"><svg t="1694078535480" class="icon" viewBox="0 0 1024 1024" version="1.1" xmlns="http://www.w3.org/2000/svg" p-id="1319" xmlns:xlink="http://www.w3.org/1999/xlink" width="200" height="200"><path d="M870.4 0H153.6a153.6 153.6 0 0 0-153.6 153.6v716.8a153.6 153.6 0 0 0 153.6 153.6h586.24a35.328 35.328 0 0 0 16.896-9.728l256-256a35.84 35.84 0 0 0 11.264-28.16V153.6a153.6 153.6 0 0 0-153.6-153.6z m76.8 523.264v190.464l-233.472 233.472H153.6A76.8 76.8 0 0 1 76.8 870.4V153.6A76.8 76.8 0 0 1 153.6 76.8h716.8A76.8 76.8 0 0 1 947.2 153.6z" fill="#1296db" p-id="1320"></path><path d="M665.6 692.736a38.4 38.4 0 0 1 0-54.272L790.528 512 665.6 385.536a38.4 38.4 0 0 1 51.2-54.272l153.6 153.6a38.4 38.4 0 0 1 0 54.272l-153.6 153.6a38.4 38.4 0 0 1-54.272 0zM307.2 692.736l-153.6-153.6a38.4 38.4 0 0 1 0-54.272l153.6-153.6a38.4 38.4 0 0 1 51.2 54.272L233.472 512 358.4 638.464a38.4 38.4 0 1 1-51.2 54.272z" fill="#1296db" p-id="1321"></path><path d="M409.6 780.8a38.4 38.4 0 0 1-35.328-53.76l204.8-460.8a38.912 38.912 0 0 1 51.2-19.456 37.376 37.376 0 0 1 19.456 51.2l-204.8 460.8a36.864 36.864 0 0 1-35.328 22.016z" fill="#1296db" p-id="1322"></path></svg>